<?xml version="1.0" encoding="utf-8"?>
<!-- Generator: Adobe Illustrator 27.0.1, SVG Export Plug-In . SVG Version: 6.00 Build 0)  -->
<svg version="1.1" xmlns="http://www.w3.org/2000/svg" xmlns:xlink="http://www.w3.org/1999/xlink" x="0px" y="0px"
	 viewBox="0 0 708.7 708.7" style="enable-background:new 0 0 708.7 708.7;" xml:space="preserve">
<style type="text/css">
	.st0{fill:#1E293B;}
	.st1{fill:#FFFFFF;}
	.st2{fill:#F3F4F6;}
</style>
<g id="Layer_2">
	<rect x="-1348.9" y="-36.3" class="st0" width="834.6" height="779.2"/>
	<rect x="-73.3" y="-36.3" class="st0" width="834.6" height="779.2"/>
</g>
<g id="Layer_1">
	<g>
		<path class="st1" d="M-1172,282.6h14.6c0.7,6.1,3.7,11,9.2,14.9c5.4,3.9,12.8,5.8,22.1,5.8c8.8,0,15.8-1.9,21.1-5.6
			c5.3-3.7,8-8.8,8-15.1c0-4.7-1.7-8.6-5-11.6c-3.3-3-8.5-5.3-15.5-7l-22.1-5.4c-8.3-2-15.2-5.4-20.5-10.2c-5.4-4.8-8-11.2-8-19.3
			c0-6.8,2-12.7,6.1-17.7c4.1-5,9.3-8.8,15.6-11.1s13.1-3.6,20.5-3.6c5.3,0,10.4,0.6,15.2,1.9c4.8,1.3,9.3,3.1,13.4,5.6
			c4.1,2.5,7.4,5.8,9.9,10.1c2.5,4.3,3.8,9.1,4,14.5h-14.6c-0.7-6-3.4-10.8-8.2-14.5c-4.8-3.7-11.5-5.5-20-5.5
			c-8,0-14.6,1.7-19.6,5.1c-5,3.4-7.6,8.2-7.6,14.3c0,8.8,5.8,14.5,17.6,17.3l21.6,5.4c10.4,2.6,18.3,6.3,23.8,11.1
			c5.5,4.7,8.2,11.3,8.2,19.6c0,10.8-4.3,19.1-12.9,25c-8.6,5.8-19.6,8.8-32.9,8.8c-7.6,0-14.3-1-20.2-3c-5.9-2-10.4-4.7-13.7-7.9
			c-3.2-3.3-5.7-6.8-7.4-10.4C-1171,290.3-1171.9,286.5-1172,282.6z"/>
		<path class="st1" d="M-1054.7,313v-87.4h14.1v16.1h0.9c4-11.7,13.7-17.5,28.9-17.5c9.9,0,17.8,2.5,23.7,7.4
			c5.8,4.9,8.8,12,8.8,21.4v60h-14.2v-55.9c0-7-1.9-12.3-5.6-16c-3.7-3.7-9-5.5-15.9-5.5c-8.7,0-15.2,2.7-19.8,8
			c-4.5,5.3-6.8,12.1-6.8,20.4v49H-1054.7z"/>
		<path class="st1" d="M-920.2,314.5c-4.5,0-8.7-0.7-12.6-2c-3.9-1.3-7.2-3.1-9.8-5.4c-2.7-2.3-4.8-5.1-6.3-8.4
			c-1.6-3.3-2.3-7-2.3-11c0-5.1,1.2-9.5,3.7-13.3c2.5-3.8,6.3-6.7,11.4-8.9c5.1-2.2,11.1-3.3,18.2-3.3h25.5v-8.9
			c0-5.8-1.8-10.1-5.5-12.9c-3.7-2.8-8.9-4.2-15.6-4.2c-11,0-17.7,3.5-20.1,10.5h-13.8c0.8-7.3,4.2-12.9,10.3-16.6
			c6.1-3.7,14.2-5.6,24.3-5.6c10.3,0,18.6,2.3,25.1,7c6.5,4.7,9.7,11.9,9.7,21.7v60H-892v-11.8h-0.5
			C-898.5,310.1-907.7,314.5-920.2,314.5z M-916.6,303.2c6.8,0,12.5-1.9,17.2-5.7c4.6-3.8,6.9-8.6,6.9-14.3V273h-25.1
			c-6.5,0-11.3,1.3-14.3,4s-4.6,6.1-4.6,10.5c0,5.1,1.9,9,5.8,11.7C-926.8,301.8-922.1,303.2-916.6,303.2z"/>
		<path class="st1" d="M-846.6,198.4c0-2.9,1-5.2,3.1-7.1c2.1-1.9,4.6-2.8,7.6-2.8c3.1,0,5.7,0.9,7.7,2.8c2,1.9,3,4.2,3,7.1
			c0,1.9-0.5,3.6-1.4,5.1c-0.9,1.5-2.2,2.6-3.9,3.4c-1.7,0.8-3.5,1.2-5.5,1.2c-3,0-5.5-0.9-7.6-2.8
			C-845.6,203.6-846.6,201.2-846.6,198.4z M-842.9,313v-87.4h14.2V313H-842.9z"/>
		<path class="st1" d="M-792.5,313V193.4h14.4V313H-792.5z"/>
		<path class="st1" d="M-670.5,225.7l-34.4,88.3l-2.4,6.1c-1.6,3.8-3.1,6.9-4.4,9.4c-1.3,2.4-3.2,5-5.5,7.7c-2.4,2.7-5.2,4.7-8.7,6
			c-3.4,1.3-7.4,1.9-12,1.9c-3,0-6.1-0.2-9.2-0.6v-11c1.6,0.3,3.9,0.4,6.9,0.4c5.3,0,9.4-1.2,12.3-3.5c2.9-2.3,5.1-6,6.6-10.9
			l1.5-4.9l-35.5-88.8h15.9l26.5,73.9h0.5l26.6-73.9H-670.5z"/>
	</g>
	<g>
		<path class="st1" d="M-1116.5,436.6v20.7c0,16,3.8,27.9,11.5,35.8c7.7,7.9,18.3,11.9,31.8,11.9c12.1,0,21.6-2.9,28.3-8.6
			c6.8-5.7,10.1-12.8,10.1-21.1h18.1c0,5-1.2,10.1-3.4,15.1c-2.3,5.1-5.6,9.9-10,14.5c-4.4,4.6-10.4,8.2-18,11
			c-7.6,2.8-16.3,4.1-26,4.1c-18.7,0-33.5-5.4-44.4-16.1c-10.8-10.7-16.3-26.2-16.3-46.3v-21.4c0-20,5.5-35.5,16.5-46.6
			c11-11.1,25.8-16.7,44.4-16.7c9.3,0,17.7,1.4,25.1,4.1c7.5,2.8,13.5,6.4,18,11.1c4.5,4.6,8,9.7,10.5,15.2
			c2.4,5.5,3.6,11.1,3.6,16.9h-18.1c0-8.4-3.5-15.9-10.6-22.4c-7-6.5-16.6-9.8-28.6-9.8c-12.9,0-23.2,4.2-31,12.6
			C-1112.7,408.9-1116.5,420.9-1116.5,436.6z"/>
		<path class="st1" d="M-970.7,517.1h-18.9l56.5-141.3h17.9l56.3,141.3h-19.9l-16.3-43.5h-59.4L-970.7,517.1z M-922.1,396.2h-0.6
			l-24.2,64h49L-922.1,396.2z"/>
		<path class="st1" d="M-825.8,375.9h49.2c12.3,0,23,1.7,32,5.1c9,3.4,16.2,8.4,21.4,14.8c5.3,6.5,9.2,13.9,11.7,22.2
			c2.5,8.4,3.8,17.8,3.8,28.4c0,10.5-1.2,19.9-3.6,28.2c-2.4,8.3-6.2,15.7-11.4,22.2c-5.1,6.5-12.3,11.5-21.3,15
			c-9.1,3.5-19.9,5.2-32.5,5.2h-49.2V375.9z M-807.4,390.7v111.4h30.1c33.7,0,50.6-18.5,50.6-55.6c0-37.2-16.9-55.8-50.6-55.8
			H-807.4z"/>
	</g>
	<g>
		<path class="st2" d="M152.1,191.3c6,0.1,12.2,0.4,18.6,0.9c6.4,0.5,12.8,1.4,19.2,2.9l-1.3,12.8c-5.2-0.2-11-0.4-17.4-0.5
			c-6.4-0.1-12.6-0.2-18.6-0.2c-4.2,0-7.8,0.1-10.8,0.4c-3,0.2-5.5,0.9-7.4,2c-1.9,1.1-3.3,2.8-4.2,5.2c-0.9,2.4-1.3,5.7-1.3,9.9
			c0,6.4,1.2,10.8,3.6,13.4c2.4,2.6,6.3,4.5,11.7,5.9l25,6.7c9.6,2.4,16.2,6.5,19.8,12.1c3.6,5.7,5.4,13.4,5.4,23
			c0,7.2-0.8,13-2.4,17.5c-1.6,4.4-4.1,7.9-7.6,10.3c-3.4,2.4-7.8,4.1-13.2,5c-5.4,1-11.8,1.4-19.3,1.4c-4.1,0-9.5-0.2-16.2-0.5
			c-6.7-0.4-14.5-1.4-23.2-3.1l1.3-13.1c7.1,0.2,12.9,0.5,17.4,0.6c4.5,0.2,8.4,0.3,11.6,0.3c3.2,0,6.5,0,9.7,0
			c6,0,10.7-0.5,14.2-1.4c3.5-0.9,5.9-2.7,7.4-5.4c1.4-2.7,2.2-6.6,2.2-11.8c0-4.4-0.5-7.9-1.5-10.4c-1-2.5-2.6-4.3-4.9-5.7
			c-2.2-1.3-5.1-2.4-8.5-3.2l-25.7-7c-9.1-2.4-15.5-6.4-19.2-12.1c-3.7-5.6-5.5-13.2-5.5-22.7c0-7.2,0.8-13,2.4-17.5
			c1.6-4.4,4.1-7.8,7.5-10c3.4-2.2,7.6-3.7,12.8-4.5C138.8,191.7,144.9,191.3,152.1,191.3z"/>
		<path class="st2" d="M231.2,229.8l1.6,16.9l1.3,2.5v68.4h-17.3v-87.8H231.2z M271.7,227.6c16,0,23.9,8,23.9,24.1v65.9h-17.5v-60.8
			c0-5.5-0.9-9.3-2.7-11.4c-1.8-2.1-4.9-3.1-9.4-3.1c-5,0-10.1,1.2-15.3,3.7c-5.2,2.5-11.3,5.9-18.5,10.2l-0.7-11.7
			c6.7-5.4,13.4-9.5,20.2-12.4C258.4,229.1,265.1,227.6,271.7,227.6z"/>
		<path class="st2" d="M387.4,263.4l-0.2,12.2l-41.4,0.2c-4.1,0.1-6.9,1.2-8.5,3.1c-1.6,2-2.4,4.7-2.4,8.2v5.4c0,4.3,1,7.5,3.1,9.4
			c2.1,2,5.4,3,10,3c3.4,0,7.1-0.6,11.2-1.9s8.3-3.2,12.5-5.8c4.2-2.6,8-5.8,11.3-9.8v11.3c-1.2,1.7-3,3.7-5.4,6
			c-2.4,2.3-5.3,4.6-8.7,6.8c-3.4,2.2-7.2,4-11.3,5.4c-4.1,1.4-8.7,2.2-13.6,2.2c-5.3,0-9.9-0.9-14-2.8c-4-1.9-7.2-4.6-9.5-8.3
			c-2.3-3.7-3.4-8.1-3.4-13.4v-9.5c0-6.8,2.2-12.2,6.6-16c4.4-3.8,10.5-5.8,18.3-5.8H387.4z M364.4,227.6c6.7,0,12.4,0.9,17,2.6
			c4.6,1.7,8.1,4.7,10.4,8.9c2.3,4.2,3.5,10,3.5,17.3v61.2h-13.7l-2.7-19.1l-1.1-2.2v-40c-0.1-5.2-1.3-8.9-3.7-11.2
			c-2.3-2.3-6.9-3.4-13.6-3.4c-4.6,0-10.3,0.2-17.2,0.7c-6.9,0.5-13.7,1-20.4,1.4l-1.6-12.4c4.1-0.7,8.6-1.4,13.6-2
			c5-0.6,10-1.1,15.2-1.4C355.3,227.8,360,227.6,364.4,227.6z"/>
		<path class="st2" d="M434.9,192.2c3.5,0,5.2,1.7,5.2,5.2v10.3c0,3.5-1.7,5.2-5.2,5.2h-8.1c-3.5,0-5.2-1.7-5.2-5.2v-10.3
			c0-3.5,1.7-5.2,5.2-5.2H434.9z M439.4,229.8v87.8h-17.1v-87.8H439.4z"/>
		<path class="st2" d="M484.6,191.6l-0.2,101c0,3.7,1,6.5,3.1,8.5c2.1,1.9,5,2.9,8.7,2.9h8.3l2,12.8c-1.2,0.6-2.9,1.1-5,1.4
			c-2.1,0.4-4.3,0.6-6.5,0.8c-2.2,0.2-4.1,0.3-5.7,0.3c-6.7,0-12.1-1.9-16.1-5.8c-4-3.8-6-9.4-6-16.7V191.6H484.6z"/>
		<path class="st2" d="M525.5,229.8l22.1,63.9c0.6,1.8,1.2,3.6,1.7,5.5c0.5,1.9,1,3.8,1.4,5.7h4.3l-5.6,12.8h-5
			c-1.4,0-2.7-0.4-3.8-1.2c-1.1-0.8-1.9-1.9-2.3-3.3l-31.3-83.3H525.5z M597.5,229.8l-34.6,92c-1.4,4-3.3,7.9-5.5,11.7
			c-2.2,3.8-5,7.3-8.2,10.5c-3.2,3.2-7.1,5.7-11.4,7.6c-4.4,1.9-9.5,2.9-15.2,2.9l-1.6-11c7.2-2.3,12.7-5.3,16.7-9
			c3.9-3.7,7-8.3,9.3-13.7l4.5-10.8c1-2.5,1.9-5.3,2.9-8.4c1-3.1,1.9-5.7,2.7-8l21.8-63.9H597.5z"/>
	</g>
	<g>
		<path class="st2" d="M235.4,417.1c-2-3-4.4-5.6-7.3-7.9c-2.9-2.3-6.3-4-10-5.3c-3.7-1.3-7.6-1.9-11.7-1.9
			c-7.4,0-13.7,1.4-18.9,4.1c-5.2,2.7-9.4,6.4-12.6,11c-3.2,4.6-5.6,9.8-7,15.7c-1.5,5.9-2.2,11.9-2.2,18.2c0,6,0.7,11.8,2.2,17.5
			c1.5,5.7,3.8,10.8,7,15.3c3.2,4.5,7.4,8.2,12.6,10.9c5.2,2.7,11.5,4.1,18.9,4.1c10.1,0,18-2.9,23.6-8.8
			c5.7-5.9,9.1-13.6,10.4-23.2h31.9c-0.8,8.9-3,17-6.5,24.2c-3.5,7.2-8.1,13.3-13.9,18.4c-5.7,5.1-12.5,8.9-20.2,11.6
			c-7.7,2.7-16.2,4-25.4,4c-11.5,0-21.8-1.9-31-5.7c-9.2-3.8-16.9-9-23.2-15.7c-6.3-6.7-11.1-14.5-14.5-23.5c-3.4-9-5-18.7-5-29.1
			c0-10.7,1.7-20.6,5-29.7c3.4-9.1,8.2-17.1,14.5-23.9c6.3-6.8,14-12.1,23.2-16c9.2-3.9,19.5-5.8,31-5.8c8.3,0,16.1,1.1,23.4,3.4
			c7.3,2.3,13.9,5.6,19.7,9.9c5.8,4.3,10.6,9.7,14.4,16.1c3.8,6.4,6.2,13.7,7.1,22h-31.9C238.7,423.4,237.4,420.1,235.4,417.1z"/>
		<path class="st2" d="M369.6,379l56.1,142.8h-34.2L380.1,490h-56.1l-11.8,31.8h-33.2L335.8,379H369.6z M371.5,466.6l-18.9-52.4
			h-0.4l-19.5,52.4H371.5z"/>
		<path class="st2" d="M503.4,379c9.7,0,18.7,1.5,27,4.4c8.3,2.9,15.5,7.3,21.6,13.2c6.1,5.9,10.8,13.2,14.3,22
			c3.4,8.8,5.1,19.1,5.1,31c0,10.4-1.4,20-4.2,28.8c-2.8,8.8-7,16.4-12.7,22.8c-5.7,6.4-12.7,11.4-21.2,15.1
			c-8.5,3.7-18.4,5.5-29.9,5.5h-64.7V379H503.4z M501.1,495.4c4.8,0,9.4-0.7,13.9-2.2c4.5-1.5,8.5-3.9,12-7.3
			c3.5-3.4,6.3-7.8,8.4-13.3c2.1-5.5,3.2-12.1,3.2-20c0-7.2-0.7-13.7-2.2-19.5s-3.9-10.8-7.2-14.9c-3.4-4.1-7.8-7.3-13.3-9.5
			c-5.5-2.2-12.4-3.3-20.5-3.3h-23.5v90H501.1z"/>
	</g>
</g>
</svg>
