<svg xmlns="http://www.w3.org/2000/svg" viewBox="0 0 708.66 708.66"><defs><style>.cls-1{fill:#1e293b;}.cls-2{fill:#fff;}</style></defs><g id="Layer_2" data-name="Layer 2"><rect class="cls-1" x="-73.3" y="-36.28" width="834.62" height="779.22"/></g><g id="Layer_1" data-name="Layer 1"><path class="cls-2" d="M125.84,289H139.1q.92,8.29,8.35,13.58t20.17,5.29q12,0,19.26-5.08A16,16,0,0,0,194.17,289a13.53,13.53,0,0,0-4.52-10.55q-4.52-4.08-14.14-6.38l-20.18-4.95q-11.37-2.72-18.69-9.27t-7.32-17.55a24.92,24.92,0,0,1,5.58-16.16A32.67,32.67,0,0,1,149.08,214a52.65,52.65,0,0,1,18.69-3.24,53.77,53.77,0,0,1,13.84,1.75,46.27,46.27,0,0,1,12.17,5.12,25.4,25.4,0,0,1,9,9.19,28.29,28.29,0,0,1,3.68,13.2H193.18a18.69,18.69,0,0,0-7.47-13.2q-6.57-5-18.24-5.05-11,0-17.9,4.63a14.86,14.86,0,0,0-6.9,13.07q0,12,16,15.81l19.72,4.87q14.18,3.63,21.69,10.11t7.51,17.9q0,14.78-11.75,22.74t-30,8a56.61,56.61,0,0,1-18.43-2.75q-8-2.75-12.48-7.24a33,33,0,0,1-6.71-9.52A26.39,26.39,0,0,1,125.84,289Z"/><path class="cls-2" d="M232.69,316.7V237.07h12.89v14.7h.84q5.52-15.95,26.31-16,13.57,0,21.58,6.72t8,19.48V316.7h-13V265.78q0-9.54-5.12-14.56t-14.45-5q-11.82,0-18,7.28t-6.18,18.57V316.7Z"/><path class="cls-2" d="M355.31,318a35.09,35.09,0,0,1-11.44-1.82,26.49,26.49,0,0,1-8.95-4.94,22.43,22.43,0,0,1-5.77-7.7A23.65,23.65,0,0,1,327,293.5a21.5,21.5,0,0,1,3.41-12.12,22.55,22.55,0,0,1,10.35-8.11,42.16,42.16,0,0,1,16.57-3h23.21v-8.15q0-8-5-11.78t-14.22-3.83q-15,0-18.36,9.55H330.37a19.21,19.21,0,0,1,9.36-15.16q8.31-5.12,22.18-5.12,14,0,22.91,6.38T393.69,262V316.7H381V306h-.46Q372.38,318,355.31,318Zm3.27-10.32q9.33,0,15.66-5.22a16.23,16.23,0,0,0,6.33-13V280.2h-22.9q-8.88,0-13.05,3.62a12,12,0,0,0-4.17,9.55A12.2,12.2,0,0,0,345.76,304,21.89,21.89,0,0,0,358.58,307.71Z"/><path class="cls-2" d="M422.36,212.28a8.26,8.26,0,0,1,2.84-6.45,10.85,10.85,0,0,1,13.95,0,8.36,8.36,0,0,1,2.77,6.45,8.6,8.6,0,0,1-1.25,4.66,8,8,0,0,1-3.53,3.1,11.51,11.51,0,0,1-5,1.09,10.08,10.08,0,0,1-6.94-2.52A8.06,8.06,0,0,1,422.36,212.28Zm3.33,104.42V237.07h13V316.7Z"/><path class="cls-2" d="M471.65,316.7v-109h13.12v109Z"/><path class="cls-2" d="M582.83,237.07l-31.32,80.47-2.2,5.57a90.66,90.66,0,0,1-4,8.53,41.23,41.23,0,0,1-5,7,19.2,19.2,0,0,1-7.88,5.43,31.35,31.35,0,0,1-11,1.74,64.28,64.28,0,0,1-8.34-.55v-10a43.42,43.42,0,0,0,6.29.34q7.29,0,11.23-3.2t6-9.89l1.37-4.46-32.32-81h14.49l24.19,67.3h.46L569,237.07Z"/><path class="cls-2" d="M176.4,429.31V448.2q0,21.82,10.49,32.66t29,10.83q16.55,0,25.8-7.84t9.24-19.19h16.47a33.34,33.34,0,0,1-3.13,13.77,46.9,46.9,0,0,1-9.15,13.17q-6,6.24-16.41,10A69.07,69.07,0,0,1,215,505.37q-25.6,0-40.43-14.68t-14.83-42.23V429q0-27.3,15-42.5t40.44-15.2A65.85,65.85,0,0,1,238.11,375a44,44,0,0,1,16.41,10.09A46.6,46.6,0,0,1,264.05,399a37.52,37.52,0,0,1,3.33,15.38H250.91q0-11.54-9.63-20.45T215.2,385q-17.62,0-28.21,11.44T176.4,429.31Z"/><path class="cls-2" d="M309.3,502.69H292.07L343.57,374h16.27l51.31,128.73H393.06L378.23,463H324.12Zm44.29-110.2H353L331,450.79h44.68Z"/><path class="cls-2" d="M441.28,374h44.87q16.85,0,29.17,4.67t19.54,13.52a57.7,57.7,0,0,1,10.64,20.27,100.27,100.27,0,0,1,.09,51.59,59.25,59.25,0,0,1-10.35,20.23q-7,8.91-19.44,13.68t-29.65,4.77H441.28Zm16.85,13.51V489h27.44q46.11,0,46.12-50.68,0-50.85-46.12-50.85Z"/></g></svg>